<?xml version="1.0" encoding="iso-8859-1"?>
<!-- Uploaded to: SVG Repo, www.svgrepo.com, Generator: SVG Repo Mixer Tools -->
<svg fill="#000000" height="800px" width="800px" version="1.1" id="Layer_1" xmlns="http://www.w3.org/2000/svg" xmlns:xlink="http://www.w3.org/1999/xlink" 
	 viewBox="0 0 512 512" xml:space="preserve">
<g>
	<g>
		<path d="M499.677,426.489c4.427,0,8.017-3.589,8.017-8.017V84.977c0-2.1-0.863-4.184-2.348-5.668l-76.96-76.96
			C426.899,0.863,424.817,0,422.716,0H106.323C92.473,0,81.204,11.268,81.204,25.119v9.086H12.261
			c-6.987,0-10.616,8.738-5.668,13.685l62.741,62.741l-62.74,62.741c-4.947,4.947-1.32,13.685,5.668,13.685h68.944v299.825
			c0,13.851,11.268,25.119,25.119,25.119h376.251c13.851,0,25.119-11.268,25.119-25.119v-34.205c0-4.427-3.589-8.017-8.017-8.017
			s-8.017,3.589-8.017,8.017v34.205c0,5.01-4.076,9.086-9.086,9.086H106.324c-5.01,0-9.086-4.076-9.086-9.086V187.056h51.841
			c4.427,0,8.017-3.589,8.017-8.017s-3.589-8.017-8.017-8.017H31.615l54.724-54.724c3.131-3.131,3.131-8.207,0-11.337L31.615,50.238
			h348.88v120.785H183.285c-4.427,0-8.017,3.589-8.017,8.017s3.589,8.017,8.017,8.017h205.228c4.427,0,8.017-3.589,8.017-8.017
			V42.221c0-4.427-3.589-8.017-8.017-8.017H97.239v-9.086c0-5.01,4.076-9.086,9.086-9.086H414.7v51.841
			c0,13.851,11.268,25.119,25.119,25.119h51.841v325.478C491.66,422.9,495.25,426.489,499.677,426.489z M439.818,76.96
			c-5.01,0-9.086-4.076-9.086-9.086V27.37l49.59,49.59H439.818z"/>
	</g>
</g>
<g>
	<g>
		<path d="M414.166,213.779H174.734c-9.136,0-16.568,7.432-16.568,16.568v146.082v76.247c0,9.136,7.432,16.568,16.568,16.568
			h239.432c9.136,0,16.568-7.432,16.568-16.568v-42.043V230.347C430.734,221.211,423.302,213.779,414.166,213.779z M414.7,452.676
			c0,0.295-0.239,0.534-0.534,0.534H174.734c-0.295,0-0.534-0.239-0.534-0.534v-73.72l51.558-73.654l70.5,109.667
			c2.719,4.231,8.85,4.898,12.412,1.334l54.19-54.19l51.841,51.841V452.676z M414.7,391.279l-46.173-46.173
			c-3.131-3.131-8.207-3.131-11.337,0l-52.825,52.825l-71.582-111.349c-3.031-4.714-10.098-4.853-13.311-0.262l-45.274,64.677
			v-120.65c0-0.295,0.239-0.534,0.534-0.534h239.432c0.295,0,0.534,0.239,0.534,0.534V391.279z"/>
	</g>
</g>
<g>
	<g>
		<path d="M294.45,257.247c-18.566,0-33.67,15.105-33.67,33.67s15.104,33.67,33.67,33.67s33.67-15.105,33.67-33.67
			S313.015,257.247,294.45,257.247z M294.45,308.554c-9.725,0-17.637-7.912-17.637-17.637s7.912-17.637,17.637-17.637
			s17.637,7.912,17.637,17.637S304.174,308.554,294.45,308.554z"/>
	</g>
</g>
<g>
	<g>
		<path d="M226.04,248.696h-17.102c-4.427,0-8.017,3.589-8.017,8.017s3.589,8.017,8.017,8.017h17.102
			c4.427,0,8.017-3.589,8.017-8.017S230.468,248.696,226.04,248.696z"/>
	</g>
</g>
<g>
	<g>
		<path d="M371.41,282.901h-17.102c-4.427,0-8.017,3.589-8.017,8.017s3.589,8.017,8.017,8.017h17.102
			c4.427,0,8.017-3.589,8.017-8.017S375.837,282.901,371.41,282.901z"/>
	</g>
</g>
<g>
	<g>
		<path d="M388.512,308.554H371.41c-4.427,0-8.017,3.588-8.017,8.017c0,4.427,3.589,8.017,8.017,8.017h17.102
			c4.427,0,8.017-3.589,8.017-8.017S392.94,308.554,388.512,308.554z"/>
	</g>
</g>
<g>
	<g>
		<path d="M311.552,102.614h-8.551c-4.427,0-8.017,3.589-8.017,8.017s3.589,8.017,8.017,8.017h0.534v9.62h-18.171V92.994h26.188
			c4.427,0,8.017-3.589,8.017-8.017s-3.589-8.017-8.017-8.017h-34.205c-4.427,0-8.017,3.589-8.017,8.017v51.307
			c0,4.427,3.589,8.017,8.017,8.017h34.205c4.427,0,8.017-3.589,8.017-8.017V110.63
			C319.569,106.203,315.979,102.614,311.552,102.614z"/>
	</g>
</g>
<g>
	<g>
		<path d="M251.694,76.96h-34.205c-4.427,0-8.017,3.589-8.017,8.017v51.307c0,4.427,3.589,8.017,8.017,8.017
			s8.017-3.589,8.017-8.017v-17.655c0.177,0.012,0.355,0.018,0.534,0.018h25.653c4.427,0,8.017-3.589,8.017-8.017V84.977
			C259.711,80.55,256.121,76.96,251.694,76.96z M243.677,102.614H226.04c-0.18,0-0.357,0.005-0.534,0.018v-9.638h18.171V102.614z"/>
	</g>
</g>
<g>
	<g>
		<path d="M191.836,76.96h-25.653c-4.427,0-8.017,3.589-8.017,8.017s3.589,8.017,8.017,8.017h9.086v26.188
			c0,5.01-4.076,9.086-9.086,9.086H149.08c-4.427,0-8.017,3.589-8.017,8.017s3.589,8.017,8.017,8.017h17.102
			c13.851,0,25.119-11.268,25.119-25.119V92.994h0.534c4.427,0,8.017-3.589,8.017-8.017S196.263,76.96,191.836,76.96z"/>
	</g>
</g>
</svg>